<?xml version="1.0" encoding="iso-8859-1"?>
<!-- Generator: Adobe Illustrator 18.0.0, SVG Export Plug-In . SVG Version: 6.00 Build 0)  -->
<!DOCTYPE svg PUBLIC "-//W3C//DTD SVG 1.1//EN" "http://www.w3.org/Graphics/SVG/1.1/DTD/svg11.dtd">
<svg version="1.1" id="Capa_1" xmlns="http://www.w3.org/2000/svg" xmlns:xlink="http://www.w3.org/1999/xlink" x="0px" y="0px"
	 viewBox="0 0 496.162 496.162" style="enable-background:new 0 0 496.162 496.162;" xml:space="preserve">
<g id="XMLID_108_">
	<path id="XMLID_110_" d="M394.38,280.936c-11.605-6.73-26.563-2.784-33.349,8.878c-23.339,40.29-66.615,65.314-112.966,65.314
		c-46.318,0-89.596-25.024-112.954-65.314c-6.751-11.662-21.691-15.608-33.33-8.878c-11.67,6.754-15.641,21.679-8.887,33.34
		c27.897,48.159,76.625,80.385,130.773,87.92v45.165H190.71c-13.475,0-24.413,10.92-24.413,24.395
		c0,13.486,10.939,24.406,24.413,24.406h114.726c13.475,0,24.397-10.92,24.397-24.406c0-13.475-10.922-24.395-24.397-24.395h-32.957
		v-45.165c54.162-7.535,102.875-39.761,130.788-87.92C410.02,302.615,406.049,287.69,394.38,280.936z"/>
	<path id="XMLID_109_" d="M248.066,326.671c56.538,0,102.354-45.824,102.354-102.347V102.348c0-38.849-21.646-72.645-53.545-89.977
		l0.016,55.417c0,8.983-7.275,16.268-16.277,16.268c-8.966,0-16.257-7.285-16.257-16.268l-0.017-66.37
		C259.035,0.562,253.631,0,248.066,0c-5.536,0-10.938,0.562-16.259,1.417l0.016,66.37c0,8.983-7.277,16.268-16.277,16.268
		c-8.966,0-16.259-7.285-16.259-16.268l-0.016-55.426c-31.884,17.333-53.546,51.13-53.546,89.986v121.977
		C145.725,280.847,191.557,326.671,248.066,326.671z"/>
</g>
<g>
</g>
<g>
</g>
<g>
</g>
<g>
</g>
<g>
</g>
<g>
</g>
<g>
</g>
<g>
</g>
<g>
</g>
<g>
</g>
<g>
</g>
<g>
</g>
<g>
</g>
<g>
</g>
<g>
</g>
</svg>
