<?xml version="1.0" encoding="iso-8859-1"?>
<!-- Generator: Adobe Illustrator 18.0.0, SVG Export Plug-In . SVG Version: 6.00 Build 0)  -->
<!DOCTYPE svg PUBLIC "-//W3C//DTD SVG 1.1//EN" "http://www.w3.org/Graphics/SVG/1.1/DTD/svg11.dtd">
<svg version="1.1" id="Capa_1" xmlns="http://www.w3.org/2000/svg" xmlns:xlink="http://www.w3.org/1999/xlink" x="0px" y="0px"
	 viewBox="0 0 492.092 492.092" style="enable-background:new 0 0 492.092 492.092;" xml:space="preserve">
<path id="XMLID_281_" d="M405.916,218.109h-20.06v-78.32C385.855,62.712,323.145,0,246.066,0
	c-77.085,0-139.797,62.712-139.797,139.789v78.32H86.177c-22.114,0-40.046,61.339-40.046,136.991
	c0,75.65,17.932,136.992,40.046,136.992h159.173h1.401h159.165c22.114,0,40.046-61.342,40.046-136.992
	C445.962,279.448,428.03,218.109,405.916,218.109z M282.163,417.463c0,11.103-9.007,20.109-20.109,20.109H230.03
	c-11.101,0-20.107-9.006-20.107-20.109v-91.879c0-11.103,9.006-20.108,20.107-20.108h32.025c11.102,0,20.109,9.005,20.109,20.108
	V417.463z M319.806,218.109h-73.055h-1.401h-73.031v-78.32c0-40.66,33.08-73.741,73.748-73.741c40.659,0,73.74,33.081,73.74,73.741
	V218.109z"/>
<g>
</g>
<g>
</g>
<g>
</g>
<g>
</g>
<g>
</g>
<g>
</g>
<g>
</g>
<g>
</g>
<g>
</g>
<g>
</g>
<g>
</g>
<g>
</g>
<g>
</g>
<g>
</g>
<g>
</g>
</svg>
