<?xml version="1.0" encoding="iso-8859-1"?>
<!-- Generator: Adobe Illustrator 18.0.0, SVG Export Plug-In . SVG Version: 6.00 Build 0)  -->
<!DOCTYPE svg PUBLIC "-//W3C//DTD SVG 1.1//EN" "http://www.w3.org/Graphics/SVG/1.1/DTD/svg11.dtd">
<svg version="1.1" id="Capa_1" xmlns="http://www.w3.org/2000/svg" xmlns:xlink="http://www.w3.org/1999/xlink" x="0px" y="0px"
	 viewBox="0 0 492.022 492.022" style="enable-background:new 0 0 492.022 492.022;" xml:space="preserve">
<g id="XMLID_607_">
	<path id="XMLID_609_" d="M317.88,113.728H58.729C26.348,113.728,0,140.078,0,172.459v259.15c0,32.381,26.348,58.729,58.729,58.729
		H317.88c32.381,0,58.728-26.348,58.728-58.729v-259.15C376.608,140.078,350.261,113.728,317.88,113.728z M307.958,421.687H68.651
		V182.378h239.307V421.687z"/>
	<path id="XMLID_608_" d="M406.609,1.685H260.308c-18.956,0-34.325,15.369-34.325,34.324c0,18.956,15.369,34.326,34.325,34.326
		h146.302c9.236,0,16.762,7.525,16.762,16.76V233.4c0,18.955,15.368,34.324,34.325,34.324s34.326-15.369,34.326-34.324V87.095
		C492.022,40,453.706,1.685,406.609,1.685z"/>
</g>
<g>
</g>
<g>
</g>
<g>
</g>
<g>
</g>
<g>
</g>
<g>
</g>
<g>
</g>
<g>
</g>
<g>
</g>
<g>
</g>
<g>
</g>
<g>
</g>
<g>
</g>
<g>
</g>
<g>
</g>
</svg>
