<?xml version="1.0" encoding="iso-8859-1"?>
<!-- Generator: Adobe Illustrator 18.0.0, SVG Export Plug-In . SVG Version: 6.00 Build 0)  -->
<!DOCTYPE svg PUBLIC "-//W3C//DTD SVG 1.1//EN" "http://www.w3.org/Graphics/SVG/1.1/DTD/svg11.dtd">
<svg version="1.1" id="Capa_1" xmlns="http://www.w3.org/2000/svg" xmlns:xlink="http://www.w3.org/1999/xlink" x="0px" y="0px"
	 viewBox="0 0 497.915 497.915" style="enable-background:new 0 0 497.915 497.915;" xml:space="preserve">
<g id="XMLID_391_">
	<path id="XMLID_395_" d="M234.941,332.111c-15.292-24.094-24.284-52.57-24.284-83.152c0-30.584,8.992-59.061,24.284-83.154
		c12.378-19.498,28.945-36.02,48.443-48.381H131.533C59.01,117.423,0,176.433,0,248.958c0,72.522,59.01,131.533,131.533,131.533
		h151.851C263.886,368.128,247.318,351.609,234.941,332.111z"/>
	<path id="XMLID_392_" d="M366.381,117.423c-72.524,0-131.534,59.01-131.534,131.535c0,72.522,59.01,131.533,131.534,131.533
		c72.523,0,131.534-59.012,131.534-131.533C497.915,176.433,438.904,117.423,366.381,117.423z M366.381,332.111
		c-45.846,0-83.153-37.309-83.153-83.152c0-45.846,37.308-83.154,83.153-83.154s83.154,37.309,83.154,83.154
		C449.535,294.802,412.227,332.111,366.381,332.111z"/>
</g>
<g>
</g>
<g>
</g>
<g>
</g>
<g>
</g>
<g>
</g>
<g>
</g>
<g>
</g>
<g>
</g>
<g>
</g>
<g>
</g>
<g>
</g>
<g>
</g>
<g>
</g>
<g>
</g>
<g>
</g>
</svg>
